<svg xmlns="http://www.w3.org/2000/svg" version="1.1" xmlns:xlink="http://www.w3.org/1999/xlink" width="1000" height="1000"><metadata><rdf:RDF xmlns:rdf="http://www.w3.org/1999/02/22-rdf-syntax-ns#" xmlns:dc="http://purl.org/dc/elements/1.1/"><rdf:Description><dc:creator>RealFaviconGenerator</dc:creator><dc:source>https://realfavicongenerator.net</dc:source></rdf:Description></rdf:RDF></metadata><g clip-path="url(#SvgjsClipPath1260)"><rect width="1000" height="1000" fill="#ffffff"></rect><g transform="matrix(3.482587064676617,0,0,3.482587064676617,162.18905472636817,150)"><svg xmlns="http://www.w3.org/2000/svg" width="194" height="201" viewBox="0 0 194 201" fill="none"><path d="M117.104 0.502809C117.757 0.540072 118.344 0.950362 119.06 2.03406C119.776 3.1188 120.535 4.74273 121.578 6.9784L186.832 146.865C189.345 152.251 191.213 156.259 192.242 159.106C192.758 160.531 193.048 161.627 193.114 162.44C193.181 163.259 193.012 163.67 192.762 163.886C192.517 164.097 192.08 164.201 191.248 163.997C190.427 163.796 189.346 163.322 187.961 162.569C185.195 161.064 181.355 158.524 176.197 155.113C139.844 131.067 107.582 133.011 80.8796 143.918C54.2226 154.807 33.1002 174.637 19.0085 186.301L18.988 186.318L18.9694 186.337C12.8042 192.662 7.55478 196.903 4.14616 198.738C3.29662 199.195 2.58104 199.492 2.00749 199.639C1.42038 199.789 1.05337 199.762 0.848313 199.671C0.689275 199.601 0.554683 199.459 0.512375 199.102C0.467066 198.719 0.541843 198.143 0.803391 197.341C1.59644 194.909 3.56636 190.677 6.47527 185.032C9.37851 179.397 13.2003 172.385 17.6784 164.408C26.6343 148.453 38.2078 128.65 50.2897 108.308C74.4533 67.6246 100.646 24.7992 111.984 6.32898C113.255 4.259 114.178 2.7565 115.003 1.77723C115.825 0.800893 116.45 0.465536 117.104 0.502809Z" fill="black" stroke="black"></path></svg></g></g><defs><clipPath id="SvgjsClipPath1260"><rect width="1000" height="1000" x="0" y="0" rx="300" ry="300"></rect></clipPath></defs></svg>