<svg width="1180" height="204" viewBox="0 0 1180 204" fill="none" xmlns="http://www.w3.org/2000/svg">
<g clip-path="url(#clip0_15_7)">
<path d="M117.104 0.503275C117.757 0.540538 118.344 0.950828 119.06 2.03452C119.776 3.11926 120.535 4.74319 121.578 6.97886L186.832 146.865C189.345 152.251 191.213 156.259 192.242 159.106C192.758 160.531 193.048 161.627 193.114 162.44C193.181 163.259 193.012 163.67 192.762 163.886C192.517 164.097 192.08 164.201 191.248 163.997C190.427 163.796 189.346 163.322 187.961 162.569C185.195 161.064 181.355 158.524 176.197 155.113C139.844 131.067 107.582 133.011 80.8799 143.918C54.2229 154.807 33.1005 174.637 19.0088 186.301L18.9883 186.318L18.9697 186.337C12.8045 192.662 7.5551 196.903 4.14648 198.738C3.29694 199.195 2.58136 199.492 2.00781 199.639C1.4207 199.789 1.05369 199.762 0.848634 199.671C0.689596 199.601 0.555004 199.459 0.512696 199.102C0.467387 198.719 0.542164 198.143 0.803712 197.341C1.59676 194.909 3.56668 190.677 6.47559 185.032C9.37883 179.397 13.2006 172.385 17.6787 164.408C26.6346 148.453 38.2081 128.65 50.29 108.308C74.4536 67.6251 100.646 24.7997 111.984 6.32944C113.255 4.25946 114.178 2.75696 115.003 1.77769C115.825 0.801359 116.45 0.466002 117.104 0.503275Z" fill="black" stroke="black"/>
<path d="M239.228 26.5041L280.251 142.825H281.87L322.893 26.5041H340.436L289.697 164.686H272.424L221.686 26.5041H239.228ZM393.603 166.845C383.618 166.845 375.004 164.641 367.762 160.233C360.565 155.78 355.01 149.572 351.096 141.611C347.228 133.604 345.294 124.293 345.294 113.677C345.294 103.062 347.228 93.7058 351.096 85.6092C355.01 77.4676 360.452 71.1253 367.424 66.5822C374.442 61.9941 382.628 59.7001 391.984 59.7001C397.382 59.7001 402.712 60.5997 407.975 62.399C413.238 64.1982 418.028 67.122 422.346 71.1703C426.665 75.1736 430.106 80.4813 432.67 87.0936C435.233 93.7058 436.515 101.847 436.515 111.518V118.265H356.629V104.501H420.322C420.322 98.6537 419.153 93.4359 416.814 88.8478C414.52 84.2597 411.236 80.6388 406.963 77.9849C402.735 75.331 397.742 74.0041 391.984 74.0041C385.642 74.0041 380.154 75.5784 375.521 78.7271C370.933 81.8308 367.402 85.8791 364.928 90.872C362.454 95.8649 361.217 101.218 361.217 106.93V116.106C361.217 123.933 362.567 130.568 365.265 136.01C368.009 141.408 371.81 145.524 376.668 148.358C381.526 151.147 387.171 152.541 393.603 152.541C397.787 152.541 401.565 151.956 404.939 150.787C408.357 149.572 411.303 147.773 413.777 145.389C416.251 142.96 418.163 139.946 419.513 136.348L434.896 140.666C433.277 145.884 430.555 150.472 426.732 154.43C422.909 158.344 418.186 161.402 412.563 163.606C406.94 165.765 400.62 166.845 393.603 166.845ZM460.738 164.686V61.0495H476.121V76.7029H477.201C479.09 71.5751 482.509 67.4143 487.456 64.2207C492.404 61.027 497.982 59.4302 504.189 59.4302C505.359 59.4302 506.821 59.4527 508.575 59.4977C510.329 59.5427 511.656 59.6101 512.556 59.7001V75.8933C512.016 75.7583 510.779 75.5559 508.845 75.286C506.956 74.9712 504.954 74.8137 502.84 74.8137C497.802 74.8137 493.304 75.8708 489.346 77.9849C485.432 80.054 482.329 82.9328 480.035 86.6213C477.786 90.2647 476.661 94.4255 476.661 99.1035V164.686H460.738ZM531.431 164.686V61.0495H547.354V164.686H531.431ZM539.528 43.7768C536.424 43.7768 533.748 42.7197 531.499 40.6056C529.294 38.4915 528.192 35.9501 528.192 32.9813C528.192 30.0126 529.294 27.4712 531.499 25.357C533.748 23.2429 536.424 22.1859 539.528 22.1859C542.631 22.1859 545.285 23.2429 547.489 25.357C549.738 27.4712 550.863 30.0126 550.863 32.9813C550.863 35.9501 549.738 38.4915 547.489 40.6056C545.285 42.7197 542.631 43.7768 539.528 43.7768ZM621.59 61.0495V74.5438H567.883V61.0495H621.59ZM583.536 36.22H599.459V134.998C599.459 139.496 600.111 142.87 601.416 145.119C602.765 147.323 604.475 148.808 606.544 149.572C608.658 150.292 610.884 150.652 613.223 150.652C614.978 150.652 616.417 150.562 617.542 150.382C618.666 150.157 619.566 149.977 620.241 149.842L623.479 164.146C622.4 164.551 620.893 164.956 618.959 165.361C617.024 165.81 614.573 166.035 611.604 166.035C607.106 166.035 602.698 165.068 598.38 163.134C594.107 161.2 590.553 158.254 587.719 154.295C584.93 150.337 583.536 145.344 583.536 139.317V36.22ZM655.798 203.55C653.099 203.55 650.693 203.325 648.579 202.875C646.464 202.47 645.003 202.065 644.193 201.66L648.241 187.626C652.11 188.616 655.528 188.976 658.497 188.706C661.466 188.436 664.097 187.109 666.391 184.725C668.73 182.386 670.867 178.585 672.801 173.322L675.77 165.226L637.446 61.0495H654.719L683.326 143.635H684.406L713.014 61.0495H730.287L686.295 179.8C684.316 185.152 681.865 189.583 678.941 193.091C676.017 196.645 672.621 199.276 668.753 200.986C664.929 202.695 660.611 203.55 655.798 203.55ZM832 164.686L794.216 26.5041H811.219L840.097 139.047H841.446L870.864 26.5041H889.756L919.173 139.047H920.523L949.401 26.5041H966.404L928.619 164.686H911.347L880.85 54.5722H879.77L849.273 164.686H832ZM1018.9 166.845C1008.91 166.845 1000.3 164.641 993.055 160.233C985.858 155.78 980.303 149.572 976.389 141.611C972.521 133.604 970.587 124.293 970.587 113.677C970.587 103.062 972.521 93.7058 976.389 85.6092C980.303 77.4676 985.745 71.1253 992.717 66.5822C999.734 61.9941 1007.92 59.7001 1017.28 59.7001C1022.67 59.7001 1028.01 60.5997 1033.27 62.399C1038.53 64.1982 1043.32 67.122 1047.64 71.1703C1051.96 75.1736 1055.4 80.4813 1057.96 87.0936C1060.53 93.7058 1061.81 101.847 1061.81 111.518V118.265H981.922V104.501H1045.62C1045.62 98.6537 1044.45 93.4359 1042.11 88.8478C1039.81 84.2597 1036.53 80.6388 1032.26 77.9849C1028.03 75.331 1023.03 74.0041 1017.28 74.0041C1010.93 74.0041 1005.45 75.5784 1000.81 78.7271C996.226 81.8308 992.695 85.8791 990.221 90.872C987.747 95.8649 986.51 101.218 986.51 106.93V116.106C986.51 123.933 987.859 130.568 990.558 136.01C993.302 141.408 997.103 145.524 1001.96 148.358C1006.82 151.147 1012.46 152.541 1018.9 152.541C1023.08 152.541 1026.86 151.956 1030.23 150.787C1033.65 149.572 1036.6 147.773 1039.07 145.389C1041.54 142.96 1043.46 139.946 1044.81 136.348L1060.19 140.666C1058.57 145.884 1055.85 150.472 1052.02 154.43C1048.2 158.344 1043.48 161.402 1037.86 163.606C1032.23 165.765 1025.91 166.845 1018.9 166.845ZM1088.19 164.686V26.5041H1104.11V77.5126H1105.46C1106.63 75.7133 1108.25 73.4193 1110.32 70.6305C1112.43 67.7967 1115.45 65.2777 1119.36 63.0737C1123.32 60.8246 1128.67 59.7001 1135.42 59.7001C1144.15 59.7001 1151.84 61.8817 1158.5 66.2448C1165.15 70.608 1170.35 76.7929 1174.08 84.7995C1177.81 92.8062 1179.68 102.252 1179.68 113.138C1179.68 124.113 1177.81 133.626 1174.08 141.678C1170.35 149.685 1165.17 155.892 1158.56 160.3C1151.95 164.663 1144.33 166.845 1135.69 166.845C1129.03 166.845 1123.7 165.743 1119.7 163.539C1115.7 161.29 1112.61 158.748 1110.46 155.915C1108.3 153.036 1106.63 150.652 1105.46 148.763H1103.57V164.686H1088.19ZM1103.84 112.868C1103.84 120.694 1104.99 127.599 1107.28 133.581C1109.58 139.519 1112.93 144.175 1117.34 147.548C1121.75 150.877 1127.14 152.541 1133.53 152.541C1140.19 152.541 1145.74 150.787 1150.2 147.278C1154.69 143.725 1158.07 138.957 1160.32 132.974C1162.61 126.947 1163.76 120.245 1163.76 112.868C1163.76 105.581 1162.63 99.0135 1160.38 93.166C1158.18 87.2735 1154.83 82.6179 1150.33 79.1994C1145.88 75.7358 1140.28 74.0041 1133.53 74.0041C1127.05 74.0041 1121.61 75.6459 1117.2 78.9295C1112.79 82.1681 1109.47 86.7112 1107.22 92.5588C1104.97 98.3613 1103.84 105.131 1103.84 112.868Z" fill="black"/>
</g>
<defs>
<clipPath id="clip0_15_7">
<rect width="1180" height="204" fill="white"/>
</clipPath>
</defs>
</svg>
