<svg width="300" height="300" viewBox="0 0 300 300" fill="none" xmlns="http://www.w3.org/2000/svg">
<rect width="300" height="300" rx="42" fill="white"/>
<path d="M160.604 50.0028C161.257 50.04 161.844 50.4503 162.56 51.534C163.276 52.6188 164.035 54.2427 165.078 56.4784L230.332 196.365C232.845 201.751 234.713 205.759 235.742 208.606C236.258 210.031 236.548 211.127 236.614 211.94C236.681 212.759 236.512 213.17 236.262 213.386C236.017 213.597 235.58 213.701 234.748 213.497C233.927 213.296 232.846 212.822 231.461 212.069C228.695 210.564 224.855 208.024 219.697 204.613C183.344 180.567 151.082 182.511 124.38 193.418C97.7226 204.307 76.6002 224.137 62.5085 235.801L62.488 235.818L62.4694 235.837C56.3042 242.162 51.0548 246.403 47.6462 248.238C46.7967 248.695 46.0811 248.992 45.5075 249.139C44.9204 249.289 44.5534 249.262 44.3483 249.171C44.1893 249.101 44.0547 248.959 44.0124 248.602C43.9671 248.219 44.0419 247.643 44.3034 246.841C45.0965 244.409 47.0664 240.177 49.9753 234.532C52.8785 228.897 56.7003 221.885 61.1784 213.908C70.1343 197.953 81.7078 178.15 93.7897 157.808C117.953 117.125 144.146 74.2992 155.484 55.8289C156.755 53.759 157.678 52.2565 158.503 51.2772C159.325 50.3008 159.95 49.9655 160.604 50.0028Z" fill="black" stroke="black"/>
</svg>
